<!-- Simple, high-contrast microphone icon for placeholder branding -->
<svg xmlns="http://www.w3.org/2000/svg" width="1024" height="1024" viewBox="0 0 1024 1024">
  <defs>
    <linearGradient id="g" x1="0" x2="1" y1="0" y2="1">
      <stop offset="0" stop-color="#4f46e5"/>
      <stop offset="1" stop-color="#06b6d4"/>
    </linearGradient>
  </defs>
  <rect rx="200" width="1024" height="1024" fill="url(#g)" />
  <g transform="translate(256,200) scale(1.0)">
    <path d="M256 96c35.3 0 64 28.7 64 64v192c0 35.3-28.7 64-64 64s-64-28.7-64-64V160c0-35.3 28.7-64 64-64z" fill="#fff" fill-opacity="1"/>
    <path d="M128 352c0 88.4 86.2 160 192 160s192-71.6 192-160v-32h-64v32c0 53-73.1 96-128 96s-128-43-128-96v-32H128v32z" fill="#fff" fill-opacity="1"/>
    <rect x="224" y="560" width="64" height="160" rx="32" fill="#fff"/>
  </g>
</svg>